<?xml version="1.0" standalone="no"?>
<!DOCTYPE svg PUBLIC "-//W3C//DTD SVG 20010904//EN" "http://www.w3.org/TR/2001/REC-SVG-20010904/DTD/svg10.dtd">
<svg version="1.0" xmlns="http://www.w3.org/2000/svg" width="304.000000pt" height="304.000000pt" viewBox="0 0 304.000000 304.000000" preserveAspectRatio="xMidYMid meet">
  <g transform="translate(0.000000,304.000000) scale(0.100000,-0.100000)" fill="#000000" stroke="none">
    <path d="M2340 2987 c-84 -35 -173 -88 -240 -143 -85 -71 -213 -188 -269 -246-38 -39 -74 -68 -86 -68 -11 0 -40 -10 -65 -21 -25 -11 -67 -22 -95 -24 -68-5 -114 -14 -139 -27 -11 -6 -23 -11 -26 -10 -14 3 -62 -15 -118 -45 -35 -19-65 -33 -67 -31 -2 2 -18 39 -36 83 -17 44 -36 86 -43 94 -6 8 -10 16 -8 18 79 -93 182 -125 216 -48 51 -72 66 -113 68 -87 6 -115 -55 -115 -248 0 -73 -1-133 -3 -133 -2 0 -26 17 -55 38 -167 124 -411 234 -539 245 -25 2 -49 6 -549 -26 15 -104 -21 -125 -59 -52 -91 24 -214 265 -425 l38 -34 -32 2 c-35 2-79 -33 -81 -65 -6 -63 10 -105 60 -159 45 -48 32 -66 -54 -76 -101 -11 -193-75 -193 -132 0 -16 -1 -47 -2 -69 -5 -95 20 -175 66 -219 44 -40 118 -33 15216 11 14 17 16 27 8 24 -20 118 -24 151 -7 60 31 88 95 58 134 -20 26 -18 2827 30 62 3 155 53 158 86 1 4 3 7 6 7 3 0 10 0 15 0 16 0 12 -29 -8 -58 -10-15 -24 -39 -32 -54 -7 -16 -17 -28 -21 -28 -17 0 -98 -95 -104 -120 -6 -29-26 -53 -69 -84 -62 -45 -110 -131 -122 -221 -4 -22 -7 -42 -7 -45 -4 -18 17-98 33 -130 18 -36 18 -40 3 -71 -21 -42 -20 -102 3 -159 22 -55 53 -91 122-142 28 -21 52 -45 52 -53 0 -8 4 -15 8 -15 4 0 16 -15 26 -32 56 -97 214-199 327 -212 17 -1 34 -7 37 -13 8 -11 120 -102 148 -120 10 -7 44 -29 74-50 153 -103 230 -137 230 -101 0 5 -23 36 -50 69 -63 76 -116 157 -150 232l-26 59 22 45 c33 65 39 123 21 198 -14 57 -14 67 -1 94 33 65 15 182 -36 236-19 21 -20 23 -4 66 9 24 15 68 15 96 l-1 53 33 0 c218 3 364 17 466 46 29 856 13 59 10 3 -3 6 -18 7 -33 5 -64 37 -131 84 -179 25 -25 30 -37 27 -68 -9-92 105 -140 260 -111 40 7 98 55 121 99 34 66 18 181 -35 239 -19 22 -64 47-94 52 -29 6 -107 45 -114 57 -4 7 -2 8 4 4 30 -18 182 -23 237 -8 24 7 39 480 -19 132 -74 256 -93 300 -47 46 48 97 161 111 248 22 131 -28 293 -127 421-17 22 -29 50 -30 70 -4 100 -58 209 -146 293 -56 55 -169 114 -233 122 -25 4-46 7 -48 9 -1 1 35 24 80 51 251 150 496 229 667 217 124 -9 131 -8 131 16 035 -24 43 -127 40 -54 -2 -129 -9 -168 -16 -38 -8 -77 -15 -85 -16 -8 -1 -20-6 -26 -9 -6 -4 -21 -9 -35 -11 -107 -20 -378 -176 -437 -252 -26 -33 -69 -34-118 -3 -39 25 -105 56 -122 58 -41 4 -82 14 -82 20 0 5 25 30 56 57 31 26 6153 68 59 30 28 179 126 246 162 41 22 118 57 170 77 121 48 130 54 111 83 -1017 -88 23 -121 9z">
  </g>
</svg>
